<svg width="253" height="74" viewBox="0 0 253 74" fill="none" xmlns="http://www.w3.org/2000/svg">
<g clip-path="url(#clip0_13_190)">
<g filter="url(#filter0_dddd_13_190)">
<path d="M43.2676 7.96362C44.0402 8.05413 44.5783 8.20527 44.9102 8.53296C45.2485 8.86734 45.3439 9.35512 45.3184 10.0339V27.8376L45.3145 28.033C45.2972 28.4813 45.2176 28.8822 44.9678 29.3435C44.6861 29.8636 44.1917 30.4538 43.3457 31.28L33.8398 40.7859C33.1387 41.4872 32.9529 42.4381 33.2197 43.2078C33.4845 43.971 34.2016 44.5739 35.3525 44.574H42.8506C43.6076 44.5694 44.1515 44.7234 44.498 45.2224C44.8319 45.7036 44.9616 46.481 44.9932 47.6501V62.7C44.9729 63.309 44.9051 63.7995 44.5908 64.1599C44.2765 64.5201 43.7414 64.722 42.8682 64.8367L42.8594 64.8386H26.7705V64.8376C25.8259 64.7472 25.2047 64.537 24.8252 64.1287C24.4449 63.7191 24.3332 63.1386 24.3271 62.3835V56.0896C24.3271 54.84 23.9101 53.8544 23.2529 53.4021C22.6133 52.9624 21.6897 52.9926 20.582 53.8933L10.9443 63.532C10.3603 64.1284 9.91426 64.4775 9.47363 64.7107C9.0335 64.9435 8.60491 65.0565 8.07031 65.1902L8.05371 65.1941H2.41406C1.9112 65.1941 1.50502 65.1786 1.18262 65.1257C0.860523 65.0728 0.606318 64.9806 0.417969 64.8162C0.227261 64.6495 0.11864 64.4224 0.0605469 64.1335C0.00319825 63.8482 -0.0069836 63.4915 0.00390625 63.0525V28.2341C0.0151076 27.8989 0.0806155 27.6316 0.219727 27.3669C0.356597 27.1066 0.562648 26.8536 0.841797 26.5427L0.847656 26.5359L19.0576 8.86206C19.2014 8.71876 20.0361 7.96287 21.1592 7.96265H43.2598L43.2676 7.96362ZM11.917 29.5203C10.438 29.5203 9.23926 30.719 9.23926 32.198V42.1062C9.2393 43.5851 10.438 44.7839 11.917 44.7839H21.29C22.7689 44.7838 23.9677 43.5851 23.9678 42.1062V32.198C23.9678 30.7191 22.7689 29.5204 21.29 29.5203H11.917Z" fill="url(#paint0_linear_13_190)"/>
</g>
<path d="M235.735 53.7256C234.497 53.7256 233.46 53.5961 232.625 53.3369C231.79 53.0778 231.099 52.8186 230.552 52.5594C230.005 52.3003 229.515 52.1707 229.083 52.1707C228.392 52.1707 227.888 52.617 227.572 53.5097H225.887C225.973 52.7322 226.031 51.9404 226.06 51.1341C226.089 50.299 226.103 49.3776 226.103 48.3698C226.103 47.3332 226.103 46.1526 226.103 44.828H227.744C228.234 47.1892 229.098 48.9745 230.336 50.1839C231.603 51.3933 233.215 51.9979 235.173 51.9979C236.469 51.9979 237.477 51.7244 238.197 51.1773C238.917 50.6014 239.277 49.8095 239.277 48.8017C239.277 47.8227 238.874 47.0164 238.067 46.3829C237.29 45.7494 235.893 45.1304 233.878 44.5257C231.286 43.7482 229.386 42.7404 228.176 41.5022C226.967 40.2352 226.362 38.6803 226.362 36.8374C226.362 34.8218 227.024 33.2093 228.349 31.9999C229.702 30.7905 231.502 30.1858 233.748 30.1858C234.9 30.1858 235.879 30.3154 236.685 30.5745C237.491 30.8049 238.168 31.064 238.715 31.352C239.291 31.6111 239.781 31.7407 240.184 31.7407C240.472 31.7407 240.716 31.6399 240.918 31.4384C241.12 31.208 241.292 30.8769 241.436 30.4449H243.121C243.063 31.0496 243.02 31.6975 242.991 32.3886C242.962 33.0509 242.934 33.8283 242.905 34.721C242.905 35.6136 242.919 36.7222 242.948 38.0468H241.264C240.832 36.0887 240.011 34.577 238.802 33.5116C237.621 32.4462 236.21 31.9135 234.569 31.9135C233.417 31.9135 232.51 32.1726 231.848 32.6909C231.214 33.2093 230.897 33.9579 230.897 34.937C230.897 35.9448 231.329 36.7798 232.193 37.4421C233.057 38.1044 234.554 38.7523 236.685 39.3858C239.19 40.0768 241.004 40.9983 242.127 42.1501C243.279 43.3019 243.855 44.8136 243.855 46.6853C243.855 48.9025 243.135 50.6302 241.695 51.8684C240.256 53.1066 238.269 53.7256 235.735 53.7256Z" fill="white"/>
<path d="M210.603 53.7256C209.135 53.7256 207.854 53.452 206.759 52.9049C205.665 52.3578 204.859 51.6956 204.341 50.9181L204.729 49.3632C205.104 50.0255 205.651 50.5582 206.371 50.9613C207.09 51.3644 207.911 51.566 208.833 51.566C210.704 51.566 212.115 50.7741 213.065 49.1904C214.016 47.5779 214.491 45.1591 214.491 41.9341C214.491 38.9682 214.073 36.7078 213.238 35.1529C212.432 33.5692 211.237 32.7773 209.653 32.7773C208.674 32.7773 207.738 33.0796 206.846 33.6843C205.982 34.289 205.363 35.0953 204.988 36.1031L204.729 34.8505C205.219 33.4396 206.097 32.3166 207.364 31.4815C208.631 30.6177 210.128 30.1858 211.856 30.1858C213.699 30.1858 215.283 30.6609 216.607 31.6111C217.961 32.5325 218.997 33.8571 219.717 35.5848C220.437 37.3125 220.797 39.3569 220.797 41.7181C220.797 44.2233 220.379 46.3829 219.544 48.197C218.738 49.9823 217.572 51.35 216.046 52.3003C214.52 53.2505 212.705 53.7256 210.603 53.7256ZM199.157 53.8552L197.948 52.4298C198.294 52.0555 198.553 51.6812 198.726 51.3068C198.927 50.9325 199.057 50.4862 199.114 49.9679C199.201 49.4496 199.244 48.8305 199.244 48.1106V25.2618C199.244 23.9373 198.942 22.987 198.337 22.4111C197.761 21.8352 196.71 21.5185 195.184 21.4609V19.7764C195.731 19.8052 196.307 19.834 196.911 19.8628C197.516 19.8916 198.106 19.906 198.682 19.906C199.949 19.906 201.13 19.8628 202.224 19.7764C203.318 19.6612 204.326 19.5028 205.248 19.3013V51.566C204.528 51.5372 203.793 51.6236 203.045 51.8251C202.296 52.0267 201.576 52.3003 200.885 52.6458C200.223 52.9913 199.647 53.3945 199.157 53.8552Z" fill="white"/>
<path d="M177.782 53.7256C175.881 53.7256 174.37 53.2361 173.247 52.2571C172.124 51.2493 171.562 49.8959 171.562 48.197C171.562 46.8724 171.865 45.807 172.469 45.0008C173.103 44.1657 173.909 43.489 174.888 42.9707C175.867 42.4524 176.904 42.0349 177.998 41.7182C179.121 41.3726 180.172 41.0559 181.151 40.7679C182.13 40.4512 182.922 40.0912 183.526 39.6881C184.16 39.2562 184.477 38.6947 184.477 38.0036V35.9304C184.477 34.6346 184.131 33.6412 183.44 32.9501C182.749 32.259 181.727 31.9135 180.373 31.9135C179.394 31.9135 178.588 32.0575 177.955 32.3454C177.321 32.6334 177.004 33.0077 177.004 33.4684C177.004 33.814 177.12 34.1595 177.35 34.505C177.58 34.8506 177.796 35.2249 177.998 35.628C178.228 36.0024 178.343 36.4199 178.343 36.8806C178.343 37.5141 178.084 38.0324 177.566 38.4355C177.076 38.8099 176.414 38.997 175.579 38.997C174.629 38.997 173.866 38.7235 173.29 38.1764C172.743 37.6005 172.469 36.8518 172.469 35.9304C172.469 34.7786 172.872 33.7852 173.679 32.9501C174.514 32.0863 175.665 31.4096 177.134 30.9201C178.603 30.4305 180.287 30.1858 182.188 30.1858C184.146 30.1858 185.729 30.4593 186.939 31.0064C188.148 31.5248 189.026 32.3886 189.573 33.598C190.149 34.7786 190.437 36.3623 190.437 38.3491V49.4928C190.437 50.1551 190.538 50.6302 190.74 50.9181C190.941 51.2061 191.272 51.3501 191.733 51.3501C192.107 51.3501 192.496 51.2637 192.899 51.0909C193.302 50.9181 193.705 50.6878 194.109 50.3998L194.8 51.782C194.051 52.4155 193.202 52.8906 192.251 53.2073C191.301 53.5529 190.236 53.7256 189.055 53.7256C186.06 53.7256 184.549 52.545 184.52 50.1839C183.685 51.3645 182.706 52.2571 181.583 52.8618C180.46 53.4377 179.193 53.7256 177.782 53.7256ZM180.546 50.5294C181.324 50.5294 182.044 50.3566 182.706 50.0111C183.368 49.6368 183.958 49.1041 184.477 48.413V40.3792C184.218 40.8111 183.814 41.1999 183.267 41.5454C182.749 41.8621 182.159 42.1789 181.496 42.4956C180.834 42.8124 180.201 43.1723 179.596 43.5754C178.991 43.9786 178.487 44.4825 178.084 45.0872C177.681 45.6631 177.48 46.3973 177.48 47.29C177.48 48.2978 177.753 49.0897 178.3 49.6656C178.847 50.2415 179.596 50.5294 180.546 50.5294Z" fill="white"/>
<path d="M154.28 53.1209V51.4364C155.806 51.4076 156.871 51.1772 157.476 50.7453C158.081 50.3134 158.383 49.5071 158.383 48.3266V25.2618C158.383 23.966 158.081 23.0302 157.476 22.4543C156.9 21.8496 155.835 21.5185 154.28 21.4609V19.7764C154.885 19.8052 155.489 19.834 156.094 19.8628C156.699 19.8916 157.289 19.906 157.865 19.906C159.103 19.906 160.269 19.8628 161.363 19.7764C162.458 19.6612 163.451 19.5028 164.344 19.3013V48.3266C164.344 49.5071 164.646 50.3134 165.251 50.7453C165.884 51.1772 166.95 51.4076 168.447 51.4364V53.1209C168.015 53.0921 167.41 53.0777 166.633 53.0777C165.884 53.0489 165.049 53.0201 164.128 52.9913C163.235 52.9625 162.342 52.9481 161.45 52.9481C160.125 52.9481 158.772 52.9769 157.39 53.0345C156.008 53.0633 154.971 53.0921 154.28 53.1209Z" fill="white"/>
<path d="M142.026 53.596V25.2618C142.026 23.9085 141.724 22.9582 141.119 22.4111C140.514 21.8352 139.463 21.5185 137.966 21.4609V19.7764C138.599 19.8052 139.204 19.834 139.78 19.8628C140.385 19.8916 141.018 19.906 141.68 19.906C142.861 19.906 143.984 19.8628 145.049 19.7764C146.115 19.6612 147.108 19.5028 148.03 19.3013V47.6355C148.03 48.96 148.332 49.9247 148.937 50.5294C149.541 51.1053 150.592 51.4076 152.09 51.4364V53.1209C151.485 53.0633 150.88 53.0345 150.276 53.0345C149.671 53.0057 149.038 52.9913 148.375 52.9913C147.195 52.9913 146.072 53.0345 145.006 53.1209C143.941 53.2361 142.947 53.3945 142.026 53.596ZM135.59 53.7256C133.719 53.7256 132.106 53.2649 130.753 52.3434C129.399 51.3932 128.348 50.0543 127.6 48.3266C126.851 46.5989 126.477 44.54 126.477 42.15C126.477 39.6449 126.88 37.4997 127.686 35.7144C128.521 33.9291 129.702 32.5613 131.228 31.6111C132.754 30.6609 134.568 30.1858 136.67 30.1858C138.167 30.1858 139.449 30.4593 140.514 31.0064C141.58 31.5535 142.328 32.2446 142.76 33.0796L142.501 34.5914C142.156 33.9291 141.623 33.3964 140.903 32.9933C140.183 32.5613 139.334 32.3454 138.355 32.3454C136.541 32.3454 135.158 33.1516 134.208 34.7641C133.258 36.3767 132.783 38.7666 132.783 41.9341C132.783 44.9288 133.2 47.218 134.035 48.8017C134.899 50.3566 136.152 51.1341 137.793 51.1341C138.83 51.1341 139.737 50.8029 140.514 50.1406C141.321 49.4784 141.925 48.5425 142.328 47.3331L142.544 48.8881C142.055 50.4142 141.205 51.6092 139.996 52.473C138.815 53.3081 137.347 53.7256 135.59 53.7256Z" fill="white"/>
<path d="M110.638 53.1209V51.4364C111.703 51.4076 112.423 51.1773 112.797 50.7454C113.2 50.2846 113.402 49.4784 113.402 48.3266V37.6149C113.402 36.06 113.085 34.8938 112.452 34.1163C111.847 33.3388 110.94 32.9501 109.731 32.9501C108.78 32.9501 107.902 33.2237 107.096 33.7708C106.29 34.3179 105.599 35.1097 105.023 36.1463V34.2459C105.743 32.9501 106.722 31.9567 107.96 31.2656C109.227 30.5457 110.666 30.1858 112.279 30.1858C114.583 30.1858 116.339 30.8769 117.548 32.259C118.758 33.6124 119.363 35.5704 119.363 38.1332V48.3266C119.363 49.4784 119.665 50.2846 120.27 50.7454C120.874 51.1773 121.94 51.4076 123.466 51.4364V53.1209C123.034 53.0922 122.429 53.0778 121.652 53.0778C120.903 53.049 120.068 53.0202 119.147 52.9914C118.254 52.9626 117.376 52.9482 116.512 52.9482C115.389 52.9482 114.266 52.977 113.143 53.0346C112.02 53.0634 111.185 53.0922 110.638 53.1209ZM95.1748 53.1209V51.4364C96.7297 51.4076 97.7951 51.1773 98.371 50.7454C98.9757 50.2846 99.2781 49.4784 99.2781 48.3266V36.2759C99.2781 34.9226 98.9613 33.9723 98.3278 33.4252C97.7232 32.8493 96.6721 32.5326 95.1748 32.475V30.7905C95.7795 30.8193 96.3842 30.8481 96.9889 30.8769C97.5936 30.9057 98.2127 30.9201 98.8462 30.9201C100.084 30.9201 101.236 30.8769 102.302 30.7905C103.367 30.6753 104.346 30.5169 105.239 30.3154V48.3266C105.239 49.4784 105.44 50.2846 105.843 50.7454C106.246 51.1773 106.966 51.4076 108.003 51.4364V53.1209C107.398 53.0922 106.578 53.0634 105.541 53.0346C104.504 52.977 103.425 52.9482 102.302 52.9482C101.035 52.9482 99.7244 52.977 98.371 53.0346C97.0465 53.0634 95.9811 53.0922 95.1748 53.1209Z" fill="white"/>
<path d="M81.3619 53.7256C79.8934 53.7256 78.612 53.452 77.5178 52.9049C76.4236 52.3578 75.6174 51.6956 75.099 50.9181L75.4878 49.3632C75.8621 50.0255 76.4092 50.5582 77.1291 50.9613C77.849 51.3644 78.6696 51.566 79.5911 51.566C81.4627 51.566 82.8737 50.7741 83.8239 49.1904C84.7741 47.5779 85.2493 45.1591 85.2493 41.9341C85.2493 38.9682 84.8317 36.7078 83.9967 35.1529C83.1904 33.5692 81.9954 32.7773 80.4117 32.7773C79.4327 32.7773 78.4968 33.0796 77.6042 33.6843C76.7404 34.289 76.1213 35.0953 75.7469 36.1031L75.4878 34.8505C75.9773 33.4396 76.8555 32.3166 78.1225 31.4815C79.3895 30.6177 80.8868 30.1858 82.6145 30.1858C84.4574 30.1858 86.0411 30.6609 87.3657 31.6111C88.719 32.5325 89.7557 33.8571 90.4755 35.5848C91.1954 37.3125 91.5553 39.3569 91.5553 41.7181C91.5553 44.2233 91.1378 46.3829 90.3028 48.197C89.4965 49.9823 88.3303 51.35 86.8042 52.3003C85.2781 53.2505 83.464 53.7256 81.3619 53.7256ZM69.916 53.8552L68.7066 52.4298C69.0521 52.0555 69.3113 51.6812 69.484 51.3068C69.6856 50.9325 69.8152 50.4862 69.8728 49.9679C69.9592 49.4496 70.0023 48.8305 70.0023 48.1106V25.2618C70.0023 23.9373 69.7 22.987 69.0953 22.4111C68.5194 21.8352 67.4684 21.5185 65.9423 21.4609V19.7764C66.4894 19.8052 67.0653 19.834 67.67 19.8628C68.2746 19.8916 68.8649 19.906 69.4408 19.906C70.7078 19.906 71.8884 19.8628 72.9826 19.7764C74.0768 19.6612 75.0846 19.5028 76.0061 19.3013V51.566C75.2862 51.5372 74.5519 51.6236 73.8033 51.8251C73.0546 52.0267 72.3347 52.3003 71.6437 52.6458C70.9814 52.9913 70.4055 53.3945 69.916 53.8552Z" fill="white"/>
</g>
<defs>
<filter id="filter0_dddd_13_190" x="-10.1761" y="6.0881" width="65.6745" height="94.4546" filterUnits="userSpaceOnUse" color-interpolation-filters="sRGB">
<feFlood flood-opacity="0" result="BackgroundImageFix"/>
<feColorMatrix in="SourceAlpha" type="matrix" values="0 0 0 0 0 0 0 0 0 0 0 0 0 0 0 0 0 0 127 0" result="hardAlpha"/>
<feOffset dy="1.60676"/>
<feGaussianBlur stdDeviation="1.74065"/>
<feColorMatrix type="matrix" values="0 0 0 0 1 0 0 0 0 0.337255 0 0 0 0 0.0784314 0 0 0 0.1 0"/>
<feBlend mode="normal" in2="BackgroundImageFix" result="effect1_dropShadow_13_190"/>
<feColorMatrix in="SourceAlpha" type="matrix" values="0 0 0 0 0 0 0 0 0 0 0 0 0 0 0 0 0 0 127 0" result="hardAlpha"/>
<feOffset dy="6.42703"/>
<feGaussianBlur stdDeviation="3.21351"/>
<feColorMatrix type="matrix" values="0 0 0 0 1 0 0 0 0 0.337255 0 0 0 0 0.0784314 0 0 0 0.09 0"/>
<feBlend mode="normal" in2="effect1_dropShadow_13_190" result="effect2_dropShadow_13_190"/>
<feColorMatrix in="SourceAlpha" type="matrix" values="0 0 0 0 0 0 0 0 0 0 0 0 0 0 0 0 0 0 127 0" result="hardAlpha"/>
<feOffset dy="14.193"/>
<feGaussianBlur stdDeviation="4.28469"/>
<feColorMatrix type="matrix" values="0 0 0 0 1 0 0 0 0 0.337255 0 0 0 0 0.0784314 0 0 0 0.05 0"/>
<feBlend mode="normal" in2="effect2_dropShadow_13_190" result="effect3_dropShadow_13_190"/>
<feColorMatrix in="SourceAlpha" type="matrix" values="0 0 0 0 0 0 0 0 0 0 0 0 0 0 0 0 0 0 127 0" result="hardAlpha"/>
<feOffset dy="25.1725"/>
<feGaussianBlur stdDeviation="5.08806"/>
<feColorMatrix type="matrix" values="0 0 0 0 1 0 0 0 0 0.337255 0 0 0 0 0.0784314 0 0 0 0.01 0"/>
<feBlend mode="normal" in2="effect3_dropShadow_13_190" result="effect4_dropShadow_13_190"/>
<feBlend mode="normal" in="SourceGraphic" in2="effect4_dropShadow_13_190" result="shape"/>
</filter>
<linearGradient id="paint0_linear_13_190" x1="28.9213" y1="55.0939" x2="15.6656" y2="21.4861" gradientUnits="userSpaceOnUse">
<stop stop-color="#FF5616"/>
<stop offset="1" stop-color="#FFAC11"/>
</linearGradient>
<clipPath id="clip0_13_190">
<rect width="253" height="73.1566" fill="white"/>
</clipPath>
</defs>
</svg>
